<svg id="Layer_1" data-name="Layer 1" xmlns="http://www.w3.org/2000/svg" viewBox="0 0 70.28 50"><defs><style>.cls-1{fill:#008da9;}.cls-2{fill:#00aeef;}.cls-3{fill:#0099b8;}.cls-4{fill:#00667f;}.cls-5{fill:#231f20;}</style></defs><title>logo</title><path class="cls-1" d="M53.17,4.62H29.54l-11,19.14a32,32,0,0,0,4,1.53c6.87,2.1,11.79,5.29,11.79,11.83a11,11,0,0,1-3.62,8.58H53.17L65,25.16Z"/><polygon class="cls-2" points="49.21 10.6 49.21 38.15 25.35 24.38 49.21 10.6"/><polygon class="cls-3" points="49.21 38.15 52.65 43.99 30.54 43.99 49.21 38.15"/><polygon class="cls-3" points="49.21 10.6 30.54 5.7 52.65 5.7 49.21 10.6"/><polygon class="cls-4" points="52.65 43.99 63.71 24.84 49.21 38.15 52.65 43.99"/><polygon class="cls-4" points="49.21 10.6 63.71 24.84 52.65 5.7 49.21 10.6"/><path class="cls-5" d="M70.28,25,55.88,0H27.47c-10.08,0-17.4,5.86-17.4,13.93s7.11,12,13.08,13.8c7.89,2.4,9,5.39,9,8.26,0,3.6-1.72,7.87-9.67,8.11H12.85v0H9.36v5.8H21.78c.2,0,.39,0,.59,0H55.88ZM35.44,44.1A13.89,13.89,0,0,0,37.92,36c0-8.8-7.46-12.09-13.08-13.8-9-2.74-9-6.9-9-8.26,0-4.72,4.88-8.13,11.61-8.13H52.54L63.59,25,52.54,44.1Z"/><path class="cls-4" d="M30,5.8H27.47c-6.73,0-11.61,3.41-11.61,8.13,0,1.36,0,5.52,9,8.26l1,.32L30.52,5.8Z"/><rect class="cls-5" y="44.12" width="5.8" height="5.8"/></svg>